# Grabadora - generated mesh for Unity
o Grabadora
v 0.000000 0.000000 0.000000
v 0.000000 0.050000 0.000000
v 0.120000 0.050000 0.000000
v 0.120000 0.000000 0.000000
v 0.120000 0.000000 0.220000
v 0.000000 0.000000 0.220000
v 0.000000 0.050000 0.140000
v 0.120000 0.050000 0.140000
v 0.020000 0.050000 0.040000
v 0.100000 0.050000 0.040000
v 0.100000 0.050000 0.110000
v 0.020000 0.050000 0.110000
v 0.020000 0.056000 0.040000
v 0.100000 0.056000 0.040000
v 0.100000 0.056000 0.110000
v 0.020000 0.056000 0.110000
v 0.015000 0.040000 0.156000
v 0.105000 0.040000 0.156000
v 0.105000 0.010000 0.204000
v 0.015000 0.010000 0.204000
v 0.105000 0.042544 0.157590
v 0.015000 0.042544 0.157590
v 0.105000 0.012544 0.205590
v 0.015000 0.012544 0.205590
f 1 2 3
f 1 3 4
f 1 4 5
f 1 5 6
f 6 7 2
f 6 2 1
f 3 8 5
f 3 5 4
f 9 10 3
f 9 3 2
f 7 8 11
f 7 11 12
f 7 12 9
f 7 9 2
f 11 8 3
f 11 3 10
f 13 14 10
f 13 10 9
f 14 15 11
f 14 11 10
f 11 12 16
f 11 16 15
f 16 13 9
f 16 9 12
f 16 15 14
f 16 14 13
f 17 18 8
f 17 8 7
f 6 5 19
f 6 19 20
f 6 20 17
f 6 17 7
f 19 5 8
f 19 8 18
f 17 18 21
f 17 21 22
f 21 23 19
f 21 19 18
f 23 24 20
f 23 20 19
f 24 22 17
f 24 17 20
f 24 23 21
f 24 21 22
