# RelojDigital - generated mesh for Unity
o RelojDigital
v 0.000000 0.000000 0.000000
v 0.000000 0.045000 0.000000
v 0.140000 0.045000 0.000000
v 0.140000 0.000000 0.000000
v 0.140000 0.000000 0.050000
v 0.000000 0.000000 0.050000
v 0.000000 0.045000 0.050000
v 0.140000 0.045000 0.050000
v 0.115000 0.011500 0.050000
v 0.025000 0.011500 0.050000
v 0.025000 0.033500 0.050000
v 0.115000 0.033500 0.050000
v 0.025000 0.011500 0.047500
v 0.115000 0.011500 0.047500
v 0.115000 0.033500 0.047500
v 0.025000 0.033500 0.047500
f 1 2 3
f 1 3 4
f 1 4 5
f 1 5 6
f 2 7 8
f 2 8 3
f 1 6 7
f 1 7 2
f 4 3 8
f 4 8 5
f 6 5 9
f 6 9 10
f 11 12 8
f 11 8 7
f 6 10 11
f 6 11 7
f 9 5 8
f 9 8 12
f 13 14 9
f 13 9 10
f 14 15 12
f 14 12 9
f 15 16 11
f 15 11 12
f 16 13 10
f 16 10 11
f 13 14 15
f 13 15 16
